<svg width="233" height="196" viewBox="0 0 233 196" fill="none" xmlns="http://www.w3.org/2000/svg">
<g clip-path="url(#clip0_1727_7100)">
<path d="M211.338 167.107C216.373 167.107 220.455 160.035 220.455 151.311C220.455 142.586 216.373 135.514 211.338 135.514C206.303 135.514 202.221 142.586 202.221 151.311C202.221 160.035 206.303 167.107 211.338 167.107Z" stroke="#F4B300" stroke-width="0.463247" stroke-miterlimit="10"/>
<path d="M203.518 158.259C202.221 155.267 203.199 153.432 203.199 151.311C203.199 146.849 204.695 141.8 207.368 138.631C208.085 140.9 208.467 143.261 208.503 145.64C208.489 150.092 206.177 155.091 203.518 158.259Z" fill="#F4B300"/>
<path d="M197.311 161.47C202.346 161.47 206.428 154.397 206.428 145.673C206.428 136.949 202.346 129.876 197.311 129.876C192.276 129.876 188.194 136.949 188.194 145.673C188.194 154.397 192.276 161.47 197.311 161.47Z" fill="white"/>
<path d="M219.695 151.806C219.695 153.571 220.408 154.979 219.436 157.365C215.243 154.025 212.098 148.415 212.098 142.639C212.153 140.603 212.45 138.582 212.983 136.616C217.17 139.929 219.695 146.03 219.695 151.806Z" fill="#F4B300"/>
<path d="M222.845 157.527C227.88 157.527 231.962 150.455 231.962 141.731C231.962 133.006 227.88 125.934 222.845 125.934C217.81 125.934 213.728 133.006 213.728 141.731C213.728 150.455 217.81 157.527 222.845 157.527Z" fill="white"/>
<path d="M211.338 167.107V143.417" stroke="#F4B300" stroke-width="0.463247" stroke-linecap="round" stroke-linejoin="round"/>
<path d="M211.338 152.696L215.03 148.475" stroke="#F4B300" stroke-width="0.463247" stroke-linecap="round" stroke-linejoin="round"/>
<path d="M211.338 157.736L216.661 151.653" stroke="#F4B300" stroke-width="0.463247" stroke-linecap="round" stroke-linejoin="round"/>
<path d="M211.338 162.933L216.832 156.647" stroke="#F4B300" stroke-width="0.463247" stroke-linecap="round" stroke-linejoin="round"/>
<path d="M211.338 152.709L206.863 147.586" stroke="#F4B300" stroke-width="0.463247" stroke-linecap="round" stroke-linejoin="round"/>
<path d="M211.338 157.745L205.844 151.463" stroke="#F4B300" stroke-width="0.463247" stroke-linecap="round" stroke-linejoin="round"/>
<path d="M211.338 162.943L205.844 156.661" stroke="#F4B300" stroke-width="0.463247" stroke-linecap="round" stroke-linejoin="round"/>
<path d="M222.845 157.527C227.88 157.527 231.962 150.455 231.962 141.731C231.962 133.006 227.88 125.934 222.845 125.934C217.81 125.934 213.728 133.006 213.728 141.731C213.728 150.455 217.81 157.527 222.845 157.527Z" stroke="#4285F4" stroke-width="0.463247" stroke-miterlimit="10"/>
<path d="M222.845 133.837V157.527V167.172" stroke="#4285F4" stroke-width="0.463247" stroke-linecap="round" stroke-linejoin="round"/>
<path d="M222.845 143.116L227.311 138.006" stroke="#4285F4" stroke-width="0.463247" stroke-linecap="round" stroke-linejoin="round"/>
<path d="M222.845 148.156L228.339 141.874" stroke="#4285F4" stroke-width="0.463247" stroke-linecap="round" stroke-linejoin="round"/>
<path d="M222.845 153.349L228.339 147.067" stroke="#4285F4" stroke-width="0.463247" stroke-linecap="round" stroke-linejoin="round"/>
<path d="M222.845 143.125L218.365 138.006" stroke="#4285F4" stroke-width="0.463247" stroke-linecap="round" stroke-linejoin="round"/>
<path d="M222.845 148.165L217.351 141.883" stroke="#4285F4" stroke-width="0.463247" stroke-linecap="round" stroke-linejoin="round"/>
<path d="M222.845 153.363L217.351 147.076" stroke="#4285F4" stroke-width="0.463247" stroke-linecap="round" stroke-linejoin="round"/>
<path d="M197.311 161.47C202.346 161.47 206.428 154.397 206.428 145.673C206.428 136.949 202.346 129.876 197.311 129.876C192.276 129.876 188.194 136.949 188.194 145.673C188.194 154.397 192.276 161.47 197.311 161.47Z" stroke="#DB4537" stroke-width="0.463247" stroke-linecap="round" stroke-linejoin="round"/>
<path d="M197.311 137.779V161.47V167.172" stroke="#DB4537" stroke-width="0.463247" stroke-linecap="round" stroke-linejoin="round"/>
<path d="M197.311 147.058L201.781 141.948" stroke="#DB4537" stroke-width="0.463247" stroke-linecap="round" stroke-linejoin="round"/>
<path d="M197.311 152.098L202.805 145.816" stroke="#DB4537" stroke-width="0.463247" stroke-linecap="round" stroke-linejoin="round"/>
<path d="M197.311 157.291L202.805 151.009" stroke="#DB4537" stroke-width="0.463247" stroke-linecap="round" stroke-linejoin="round"/>
<path d="M197.311 147.067L192.836 141.948" stroke="#DB4537" stroke-width="0.463247" stroke-linecap="round" stroke-linejoin="round"/>
<path d="M197.311 152.107L191.817 145.826" stroke="#DB4537" stroke-width="0.463247" stroke-linecap="round" stroke-linejoin="round"/>
<path d="M197.311 157.3L191.817 151.019" stroke="#DB4537" stroke-width="0.463247" stroke-linecap="round" stroke-linejoin="round"/>
<path d="M11.7015 167.172H228.339" stroke="black" stroke-opacity="0.8" stroke-width="0.463247" stroke-linecap="round" stroke-linejoin="round"/>
<path d="M69.9596 102.927L46.6828 79.6507C44.331 77.2989 40.5179 77.2989 38.1661 79.6507L14.5486 103.268C12.1968 105.62 12.1968 109.433 14.5486 111.785L37.8254 135.062C40.1772 137.413 43.9903 137.413 46.3421 135.062L69.9596 111.444C72.3114 109.092 72.3114 105.279 69.9596 102.927Z" fill="#E4F2FF"/>
<path d="M75.443 103.098L46.5124 74.1673C44.1606 71.8155 40.3475 71.8155 37.9957 74.1673L9.0651 103.098C6.71328 105.45 6.71328 109.263 9.0651 111.615L37.9957 140.545C40.3475 142.897 44.1606 142.897 46.5124 140.545L75.443 111.615C77.7948 109.263 77.7948 105.45 75.443 103.098Z" stroke="#4285F4" stroke-width="0.463247" stroke-linecap="round" stroke-linejoin="round"/>
<path d="M14.5181 145.135C14.7666 146.344 14.9537 147.563 15.0786 148.791C15.2176 150.009 15.301 151.232 15.3751 152.455C15.4492 153.678 15.4817 154.905 15.4724 156.138C15.481 157.375 15.4269 158.612 15.3102 159.844C15.0617 158.636 14.8746 157.416 14.7497 156.189C14.6107 154.97 14.5274 153.743 14.4532 152.52C14.3791 151.297 14.3513 150.069 14.356 148.841C14.3606 147.614 14.393 146.386 14.5181 145.135Z" fill="#0F9D58"/>
<path d="M22.2636 152.084C21.0555 152.332 19.8356 152.519 18.6086 152.645C17.3857 152.784 16.1627 152.867 14.9397 152.946C13.7167 153.025 12.4891 153.048 11.2615 153.038C10.0242 153.05 8.78716 152.995 7.55554 152.876C8.76329 152.627 9.98332 152.441 11.2106 152.32C12.4289 152.181 13.6519 152.093 14.8749 152.019C16.0978 151.945 17.3254 151.917 18.553 151.927C19.7918 151.916 21.0302 151.969 22.2636 152.084Z" fill="#0F9D58"/>
<path d="M48.0433 128.417C48.2674 129.222 48.4315 130.043 48.5344 130.872C48.6502 131.692 48.7289 132.516 48.7706 133.341C48.8123 134.166 48.8262 134.99 48.803 135.819C48.7893 136.655 48.7134 137.488 48.5761 138.312C48.3527 137.506 48.1871 136.686 48.0804 135.857C47.9692 135.037 47.8905 134.217 47.8488 133.392C47.8071 132.567 47.7932 131.738 47.8163 130.909C47.8303 130.074 47.9062 129.241 48.0433 128.417Z" fill="#3842AD"/>
<path d="M53.2734 133.1C52.4699 133.325 51.6508 133.489 50.8228 133.591C49.9982 133.702 49.1783 133.786 48.3537 133.828C47.5291 133.869 46.7045 133.883 45.8753 133.86C45.0401 133.846 44.207 133.77 43.3831 133.633C44.1859 133.405 45.0052 133.239 45.8336 133.137C46.6582 133.026 47.4782 132.943 48.3027 132.901C49.1273 132.859 49.9519 132.85 50.7811 132.873C51.6164 132.887 52.4494 132.963 53.2734 133.1Z" fill="#3842AD"/>
<path d="M81.184 0C81.4388 1.21371 81.6056 2.43205 81.7399 3.65502C81.8742 4.878 81.9669 6.09634 82.041 7.32394C82.1151 8.55155 82.1429 9.77452 82.1383 11.0021C82.1454 12.2395 82.0897 13.4764 81.9715 14.7081C81.7167 13.4944 81.55 12.2761 81.4156 11.0531C81.2813 9.83011 81.1886 8.61177 81.1145 7.38416C81.0404 6.15656 81.0126 4.93359 81.0219 3.70598C81.0132 2.46871 81.0673 1.23179 81.184 0V0Z" fill="#0F9D58"/>
<path d="M88.9435 6.94865C87.7297 7.20343 86.5114 7.3702 85.2884 7.50454C84.0655 7.63889 82.8471 7.73153 81.6195 7.80565C80.3919 7.87977 79.1689 7.90757 77.9413 7.90294C76.704 7.91003 75.4671 7.85437 74.2354 7.73617C75.4491 7.48138 76.6674 7.31461 77.8904 7.18027C79.1133 7.04593 80.3317 6.95328 81.5593 6.87916C82.7869 6.80504 84.0099 6.77724 85.2375 6.78651C86.4748 6.7755 87.7118 6.82962 88.9435 6.94865ZM90.8798 9.00547C91.1039 9.81063 91.268 10.6313 91.3709 11.4607C91.4821 12.2806 91.5654 13.1052 91.6071 13.9298C91.6488 14.7544 91.6627 15.5789 91.6396 16.4082C91.6256 17.2434 91.5497 18.0764 91.4126 18.9004C91.187 18.0954 91.0214 17.2747 90.9169 16.4452C90.8057 15.6253 90.7223 14.8007 90.6806 13.9761C90.6389 13.1515 90.6297 12.3269 90.6528 11.4977C90.6666 10.6625 90.7425 9.82944 90.8798 9.00547Z" fill="#0F9D58"/>
<path d="M96.0913 13.6844C95.2858 13.9081 94.4653 14.0738 93.6361 14.18C92.8162 14.2912 91.9962 14.37 91.1716 14.4163C90.3471 14.4626 89.5179 14.4672 88.6933 14.4487C87.8564 14.4332 87.0218 14.3558 86.1964 14.2171C87.0015 13.9931 87.8222 13.8289 88.6516 13.726C89.4715 13.6149 90.2961 13.5315 91.1207 13.4898C91.9453 13.4481 92.7698 13.4388 93.5991 13.462C94.4341 13.4765 95.2669 13.5508 96.0913 13.6844ZM4.6787 138.608C4.90246 139.412 5.06811 140.231 5.17438 141.059C5.28556 141.883 5.36431 142.703 5.41063 143.528C5.45696 144.353 5.46159 145.177 5.44306 146.006C5.42545 146.842 5.34804 147.674 5.21144 148.499C4.98696 147.695 4.82282 146.876 4.72039 146.048C4.60921 145.223 4.52583 144.404 4.48414 143.579C4.44245 142.754 4.42855 141.925 4.45171 141.101C4.47006 140.266 4.5459 139.433 4.6787 138.608Z" fill="#0F9D58"/>
<path d="M9.89484 143.287C9.08968 143.511 8.26903 143.675 7.43963 143.778C6.61968 143.894 5.7951 143.973 4.97052 144.014C4.14594 144.056 3.32136 144.07 2.49215 144.047C1.65691 144.033 0.823855 143.957 -0.00012207 143.82C0.805474 143.596 1.62595 143.431 2.45509 143.324C3.27504 143.213 4.09499 143.134 4.91957 143.092C5.74415 143.051 6.57336 143.037 7.40257 143.06C8.23779 143.074 9.07081 143.15 9.89484 143.287ZM207.79 75.8151C208.038 77.0231 208.225 78.2431 208.35 79.4701C208.489 80.6884 208.572 81.9114 208.651 83.139C208.73 84.3666 208.753 85.5896 208.744 86.8172C208.752 88.0545 208.698 89.2914 208.582 90.5232C208.332 89.3154 208.147 88.0954 208.026 86.8681C207.882 85.6498 207.799 84.4268 207.725 83.1992C207.651 81.9716 207.623 80.7486 207.627 79.521C207.632 78.2934 207.664 77.0519 207.79 75.8151Z" fill="#0F9D58"/>
<path d="M215.535 82.7684C214.321 83.0232 213.098 83.19 211.88 83.3243C210.662 83.4586 209.434 83.5513 208.211 83.6254C206.988 83.6995 205.761 83.7273 204.533 83.7227C203.296 83.7299 202.059 83.6742 200.827 83.5559C202.041 83.3011 203.259 83.1344 204.482 83C205.705 82.8657 206.923 82.773 208.146 82.6989C209.369 82.6248 210.597 82.597 211.829 82.6063C213.066 82.5953 214.304 82.6494 215.535 82.7684ZM202.685 67.3237C202.908 68.1277 203.074 68.9466 203.18 69.7743C203.292 70.5943 203.37 71.4188 203.417 72.2434C203.463 73.068 203.468 73.8926 203.444 74.7218C203.431 75.557 203.355 76.3901 203.217 77.2141C202.993 76.4105 202.829 75.5914 202.726 74.7635C202.615 73.9389 202.532 73.119 202.49 72.2944C202.448 71.4698 202.435 70.6406 202.458 69.816C202.476 68.981 202.552 68.1483 202.685 67.3237Z" fill="#0F9D58"/>
<path d="M207.901 72.0026C207.096 72.2266 206.275 72.3907 205.445 72.4936C204.626 72.6048 203.801 72.6882 202.976 72.7299C202.152 72.7715 201.327 72.7854 200.498 72.7623C199.663 72.7485 198.83 72.6727 198.006 72.5353C198.811 72.3098 199.631 72.1441 200.461 72.0396C201.281 71.9284 202.101 71.8497 202.925 71.808C203.75 71.7663 204.579 71.7524 205.408 71.7756C206.244 71.7897 207.077 71.8656 207.901 72.0026Z" fill="#0F9D58"/>
<path d="M113.815 94.118L48.3074 118.86L102.623 145.867L173.556 118.86L113.815 94.118Z" fill="#F49000"/>
<path d="M113.815 94.118L102.623 145.867L173.556 118.86L113.815 94.118Z" fill="#E65B51"/>
<path d="M113.815 94.1736L173.556 118.86L192.887 119.462L133.823 92.9182L113.815 94.1736Z" fill="#F4B300"/>
<path d="M30.9634 110.684L95.7485 87.6464L113.815 94.1179L48.3074 118.86L30.9634 110.684Z" fill="#F4B300"/>
<path d="M129.649 92.1399C129.437 94.5274 128.869 96.8697 127.963 99.0886C126.851 101.775 125.739 102.989 125.22 105.625C124.844 107.29 124.844 109.019 125.22 110.684C125.596 112.226 126.295 113.523 128.597 116.377C131.238 119.657 132.137 120.208 133.869 122.283C135.537 124.289 136.76 126.527 139.136 130.928C142.231 136.649 143.769 139.512 143.986 140.628C145.548 148.906 134.888 157.439 133.234 158.76C120.287 169.122 101.488 169.465 87.688 164.031C81.9487 161.909 76.7605 158.522 72.5074 154.122C63.9883 145.173 62.2743 134.726 61.5423 129.871C60.9772 126.091 58.9852 111.476 67.0272 97.824C75.1942 83.959 85.6266 84.8114 89.1658 72.3083C91.8619 62.7886 88.179 53.922 90.2173 53.3152C92.3761 52.6898 94.595 63.1499 104.578 68.4958C107.682 70.1588 108.539 69.7188 112.958 72.1045C118.892 75.3102 120.097 77.5893 124.187 80.304C133.638 86.5717 142.254 84.3759 142.717 87.0488C142.99 88.522 140.748 91.1393 128.38 96.1146L129.649 92.1399Z" fill="#4285F4"/>
<path d="M102.623 145.867L101.363 196L48.3074 166.936V118.86L102.623 145.867Z" fill="#F4B300"/>
<path d="M102.623 145.867L101.363 196L170.665 172.699L173.556 118.86L102.623 145.867Z" fill="#F6D550"/>
<path d="M134.921 132.623C134.541 129.195 137.608 128.079 141.249 121.871C143.829 117.466 145.089 113.241 146.729 107.742C148.702 101.127 148.415 99.4546 150.523 97.4117C153.187 94.8267 157.935 93.3258 161.488 95.0954C165.972 97.3283 166.366 103.735 166.551 106.677C167.246 118.022 159.542 126.476 156.638 129.663C153.224 133.406 146.446 140.827 140.424 138.928C137.71 138.108 135.236 135.454 134.921 132.623Z" fill="#4285F4"/>
<path d="M97.2402 73.7166L107.307 77.6495C107.307 77.6495 105.704 86.6921 100.182 85.0383C94.6599 83.3845 97.2402 73.7166 97.2402 73.7166Z" fill="white"/>
<path d="M97.2402 73.7166L107.307 77.6495C107.307 77.6495 105.704 86.6921 100.182 85.0383C94.6599 83.3845 97.2402 73.7166 97.2402 73.7166Z" stroke="black" stroke-opacity="0.7" stroke-width="0.463247" stroke-linecap="round" stroke-linejoin="round"/>
<path d="M102.271 75.6808C102.271 75.6808 98.1018 82.6295 100.182 85.0384C100.182 85.0384 103.568 82.4257 102.271 75.6808Z" fill="black" fill-opacity="0.7"/>
<path d="M110.966 79.2153L118.378 85.849C118.378 85.849 114.084 93.1405 109.85 89.9349C105.616 86.7292 110.966 79.2153 110.966 79.2153Z" fill="white"/>
<path d="M110.966 79.2153L118.378 85.849C118.378 85.849 114.084 93.1406 109.85 89.9349C105.616 86.7292 110.966 79.2153 110.966 79.2153Z" stroke="black" stroke-opacity="0.7" stroke-width="0.463247" stroke-linecap="round" stroke-linejoin="round"/>
<path d="M114.677 82.5229C114.677 82.5229 108.868 87.1554 109.859 89.9349C109.859 89.9256 113.625 88.7629 114.677 82.5229Z" fill="black" fill-opacity="0.7"/>
<path d="M95.6096 84.955C95.214 84.4616 94.7836 83.9972 94.3218 83.5653C93.8693 83.1235 93.3896 82.7104 92.8857 82.3284C91.8879 81.5568 90.7987 80.9111 89.6429 80.4059C88.4933 79.8922 87.2842 79.5234 86.0435 79.308C84.7908 79.0903 83.521 78.9864 82.2495 78.9976C82.5584 78.9606 82.878 78.9281 83.2084 78.9004C83.5266 78.8603 83.8467 78.8387 84.1674 78.8355C84.8132 78.8339 85.4585 78.8742 86.0991 78.9559C87.3792 79.1101 88.6286 79.4568 89.8051 79.9844C90.994 80.5053 92.0981 81.2017 93.0802 82.0504C94.0805 82.8697 94.9356 83.8516 95.6096 84.955ZM92.5151 86.3586C91.4436 85.7425 90.302 85.2573 89.1148 84.9133C87.9388 84.5609 86.7295 84.3311 85.5062 84.2277C85.2004 84.1814 84.89 84.1953 84.5797 84.1721C84.271 84.1556 83.9618 84.1556 83.6532 84.1721H82.7267L81.8002 84.2601C80.5692 84.4032 79.3495 84.6307 78.1498 84.9411C78.7335 84.7187 79.3172 84.4779 79.9148 84.3111C80.5248 84.144 81.1434 84.0094 81.7677 83.9081C83.0098 83.6959 84.2739 83.643 85.5293 83.7505C86.7952 83.8547 88.0415 84.1273 89.2353 84.5612C89.8249 84.7767 90.4005 85.0289 90.9586 85.3163C91.5085 85.615 92.0295 85.9639 92.5151 86.3586ZM90.8289 88.4803C90.2961 88.4803 89.7634 88.4571 89.2307 88.4803C88.6979 88.5035 88.1698 88.4803 87.6417 88.5266C86.5856 88.5811 85.5337 88.6987 84.4916 88.8787C83.4562 89.0537 82.44 89.3283 81.4574 89.6987C81.2072 89.7867 80.9941 89.9117 80.7393 90.0183C80.6189 90.0739 80.4984 90.1248 80.3826 90.1897L80.0445 90.3935C79.5853 90.6653 79.1499 90.9752 78.7427 91.32C79.0948 90.9133 79.4893 90.5452 79.9194 90.2221L80.2483 89.9812C80.3595 89.9071 80.4846 89.8469 80.6004 89.7774C80.8366 89.6523 81.0636 89.4995 81.3138 89.3883C82.3015 88.9392 83.3432 88.62 84.4129 88.4386C86.5393 88.0878 88.7106 88.1113 90.8289 88.5081V88.4803ZM111.74 92.4689C113.023 92.3251 114.32 92.3956 115.58 92.6773C116.852 92.9384 118.077 93.3914 119.212 94.0208C120.355 94.6294 121.397 95.4107 122.302 96.337C122.757 96.7937 123.179 97.2813 123.567 97.7962C123.764 98.0509 123.943 98.3186 124.104 98.5976C124.275 98.8663 124.447 99.1396 124.609 99.413C123.843 98.3989 122.989 97.4547 122.056 96.5918C121.128 95.7422 120.099 95.008 118.994 94.4052C117.889 93.8013 116.715 93.3346 115.497 93.0155C114.888 92.8463 114.269 92.7164 113.644 92.6264C113.014 92.5299 112.377 92.4773 111.74 92.4689ZM112.509 95.7811C113.116 95.9321 113.709 96.1384 114.278 96.3972C114.846 96.6729 115.397 96.9823 115.928 97.3237C116.99 98.0051 117.959 98.8228 118.809 99.7558C119.658 100.688 120.386 101.723 120.977 102.836C121.271 103.39 121.535 103.959 121.769 104.541C121.992 105.125 122.168 105.727 122.348 106.32C121.862 105.181 121.3 104.076 120.667 103.012L120.176 102.234L119.634 101.451C119.458 101.199 119.27 100.956 119.068 100.724C118.865 100.497 118.689 100.261 118.466 100.029C117.64 99.1218 116.723 98.3022 115.728 97.5831C114.73 96.8573 113.649 96.2524 112.509 95.7811ZM111.86 98.4031C113.465 99.842 114.806 101.551 115.821 103.452C116.328 104.412 116.708 105.434 116.951 106.491C117.016 106.751 117.035 107.024 117.076 107.293C117.076 107.427 117.123 107.561 117.132 107.696V108.103C117.139 108.642 117.088 109.179 116.979 109.706C116.998 109.176 116.975 108.644 116.91 108.117L116.868 107.728C116.868 107.599 116.812 107.469 116.785 107.339C116.72 107.084 116.683 106.825 116.599 106.575C116.296 105.569 115.896 104.594 115.404 103.666C114.913 102.731 114.367 101.826 113.769 100.956C113.472 100.492 113.162 100.089 112.842 99.6631C112.523 99.2369 112.198 98.82 111.86 98.4031Z" fill="#3842AD"/>
<path d="M102.535 149.458L120.884 170.938L171.985 149.685L173.37 122.473L102.623 145.867L102.535 149.458Z" fill="#F49000"/>
<path d="M83.681 162.873L102.535 149.444L102.623 145.867L48.3074 122.376V141.383L83.681 162.873Z" fill="#F49000"/>
<path d="M92.6216 66.3972L92.2974 59.115L96.6612 65.4568C96.6612 65.4568 94.6136 64.0023 92.6216 66.3972ZM130.446 88.4802L137.719 88.017L131.446 92.4827C131.446 92.4827 132.869 90.4166 130.446 88.4802Z" fill="#FBCED1"/>
<path d="M83.6809 159.357L34.5999 129.542L48.3073 118.86L102.623 145.867L83.6809 159.357Z" fill="#F4B300"/>
<path d="M187.893 139.525L120.982 167.357L102.623 145.867L173.556 118.86L187.893 139.525Z" fill="#F4B300"/>
<path d="M48.3074 144.533C49.0369 143.803 49.8273 143.137 50.6699 142.541C51.4976 141.926 52.3781 141.385 53.3012 140.924C52.5727 141.655 51.7822 142.322 50.9386 142.916C50.1087 143.529 49.2285 144.069 48.3074 144.533ZM48.3074 148.485C49.5376 147.394 50.8241 146.369 52.1616 145.413C53.4867 144.442 54.863 143.542 56.2845 142.717C55.058 143.81 53.7729 144.835 52.4349 145.789C51.1082 146.76 49.7303 147.66 48.3074 148.485ZM48.3027 152.904C49.1968 152.191 50.1187 151.514 51.0498 150.866C51.9809 150.217 52.9028 149.564 53.8663 148.929C54.8299 148.295 55.7703 147.679 56.7431 147.076L58.2023 146.187C58.698 145.9 59.1844 145.608 59.6847 145.335C59.2215 145.691 58.7582 146.025 58.3274 146.372L56.9377 147.373C56.0112 148.035 55.0847 148.675 54.1211 149.305C53.1576 149.935 52.2172 150.555 51.2444 151.158C50.2715 151.76 49.3033 152.353 48.3027 152.904ZM48.3074 158.991C49.6091 157.981 50.9432 157.008 52.282 156.04C53.6208 155.072 54.9689 154.132 56.3216 153.191C57.6742 152.251 59.0454 151.338 60.4259 150.412L62.5013 149.064C63.2008 148.628 63.891 148.179 64.5998 147.753C63.9512 148.267 63.2842 148.753 62.631 149.249L60.6298 150.708C59.2956 151.676 57.9429 152.617 56.5856 153.557C55.2283 154.498 53.8617 155.41 52.4812 156.337C51.1008 157.263 49.7203 158.139 48.3074 158.991ZM48.3027 164.962C49.9936 163.684 51.7122 162.452 53.4355 161.219C55.1588 159.987 56.9052 158.797 58.6424 157.583C60.3796 156.369 62.1399 155.202 63.9049 154.034L66.5593 152.293C67.4534 151.723 68.3428 151.144 69.2415 150.588C68.3984 151.232 67.5414 151.848 66.689 152.478L64.1087 154.331C62.3855 155.563 60.639 156.758 58.9018 157.972C57.1647 159.186 55.4043 160.353 53.6347 161.52C51.8651 162.688 50.1001 163.841 48.3027 164.962ZM52.2959 168.997C54.0285 167.696 55.7934 166.431 57.5584 165.171C59.3234 163.911 61.1162 162.692 62.8904 161.465C64.6646 160.237 66.4759 159.028 68.2826 157.833L71.0019 156.045C71.9284 155.461 72.8224 154.868 73.7443 154.298C72.8826 154.956 72.0025 155.586 71.1269 156.23L68.4864 158.125C66.7168 159.38 64.9287 160.608 63.1545 161.831C61.3802 163.054 59.5689 164.272 57.7576 165.467C55.9463 166.662 54.1397 167.853 52.2959 168.997ZM57.6325 172.027C59.3651 170.721 61.1254 169.456 62.895 168.2C64.6646 166.945 66.4481 165.717 68.227 164.494C70.0059 163.271 71.8079 162.053 73.6192 160.858L76.3338 159.07C77.2603 158.491 78.159 157.893 79.0809 157.323C78.2146 157.981 77.3345 158.616 76.4635 159.26L73.8184 161.154C72.0534 162.41 70.2653 163.633 68.4864 164.86C66.7076 166.088 64.9009 167.302 63.0942 168.497C61.2876 169.692 59.4716 170.878 57.6325 172.027ZM63.0016 174.88C64.7341 173.574 66.4991 172.309 68.2641 171.054C70.029 169.799 71.8218 168.571 73.596 167.348C75.3703 166.125 77.1816 164.907 78.9882 163.712L81.7075 161.923C82.634 161.34 83.5281 160.747 84.4499 160.177C83.5883 160.835 82.7081 161.465 81.8372 162.109L79.2152 163.99C77.4456 165.245 75.6575 166.473 73.8833 167.696C72.109 168.918 70.2977 170.137 68.4864 171.332C66.6751 172.527 64.8546 173.718 63.0016 174.88ZM68.3567 177.595C71.1362 175.571 73.9388 173.593 76.7461 171.619L85.2097 165.745L93.7334 159.959L98.0185 157.101L102.327 154.28L98.1574 157.286L93.9511 160.256L85.4876 166.125L76.9639 171.911C74.1195 173.824 71.2427 175.728 68.3567 177.595ZM102.257 160.284C99.8668 162.039 97.4487 163.753 95.0259 165.463C92.6031 167.172 90.1525 168.849 87.7205 170.558C85.2884 172.268 82.8193 173.903 80.3548 175.552L76.6488 178.012C75.4073 178.823 74.1705 179.643 72.9197 180.439C74.1103 179.555 75.324 178.698 76.5238 177.827L80.151 175.256C82.5784 173.546 85.0244 171.869 87.4564 170.16C89.8885 168.451 92.3576 166.815 94.822 165.171C97.2865 163.526 99.7603 161.882 102.257 160.284ZM102.1 166.676C100.145 168.136 98.1621 169.549 96.1794 170.957C94.1967 172.365 92.1815 173.736 90.1849 175.126C88.1883 176.516 86.1639 177.887 84.1349 179.221L81.0682 181.236C80.0398 181.889 79.0253 182.561 77.9923 183.205C78.9651 182.473 79.9564 181.769 80.9385 181.046L83.9126 178.929C85.8999 177.54 87.9058 176.15 89.907 174.76C91.9082 173.37 93.928 172.018 95.957 170.674C97.986 169.331 100.061 167.978 102.1 166.676ZM101.914 173.569C100.432 174.704 98.9218 175.793 97.4116 176.877C95.9014 177.961 94.3588 179.017 92.8347 180.087C91.3106 181.157 89.7541 182.181 88.2022 183.205L85.886 184.729C85.0938 185.225 84.3156 185.734 83.5188 186.216C84.2554 185.646 85.0105 185.1 85.7563 184.544L88.0216 182.909C89.5364 181.825 91.0697 180.773 92.5985 179.703C94.1272 178.633 95.6744 177.609 97.2309 176.585C98.7874 175.561 100.335 174.547 101.914 173.569ZM101.761 180.203C100.733 181.023 99.6722 181.806 98.6114 182.58C97.5506 183.353 96.4758 184.104 95.3965 184.85C94.3171 185.595 93.2238 186.327 92.1167 187.036L90.4583 188.078C89.8931 188.417 89.3418 188.769 88.7674 189.098C89.2816 188.685 89.8097 188.296 90.3285 187.893L91.9175 186.726C92.9737 185.947 94.0531 185.197 95.1324 184.451C96.2118 183.705 97.3051 182.973 98.4122 182.265C99.5194 181.556 100.622 180.847 101.761 180.203ZM101.595 186.735C99.24 188.727 96.69 190.476 93.9836 191.956C95.1537 190.952 96.3802 190.017 97.6571 189.153C98.9233 188.274 100.238 187.467 101.595 186.735ZM101.451 192.132C101.025 192.623 100.534 193.055 99.9919 193.415C99.4615 193.79 98.8835 194.092 98.2732 194.314C99.1422 193.342 100.232 192.594 101.451 192.132Z" fill="#F49000"/>
<path d="M98.5743 96.8558C98.6471 96.1528 98.8581 95.4711 99.1951 94.8499C99.5104 94.2215 99.9302 93.6514 100.437 93.1637C100.212 93.8183 99.935 94.4535 99.6074 95.063C99.2941 95.678 98.9493 96.2764 98.5743 96.8558Z" fill="#3842AD"/>
<path d="M99.4035 87.1508L105.94 90.7456C105.94 90.7456 97.9211 98.7412 99.4035 87.1508Z" fill="#FBCED1"/>
<path d="M176.497 55.0014L135.305 46.1302C134.533 45.9639 133.841 45.5381 133.344 44.9236C132.848 44.3091 132.577 43.5431 132.577 42.7531V23.7137C132.577 22.7971 132.941 21.9181 133.589 21.27C134.237 20.6219 135.116 20.2578 136.032 20.2578H177.201C177.656 20.2566 178.106 20.3451 178.527 20.5182C178.947 20.6913 179.329 20.9457 179.651 21.2667C179.973 21.5878 180.228 21.9691 180.402 22.389C180.577 22.8089 180.666 23.259 180.666 23.7137V51.6243C180.667 52.1386 180.552 52.6464 180.331 53.1107C180.109 53.5749 179.787 53.9838 179.387 54.3075C178.988 54.6312 178.521 54.8615 178.021 54.9816C177.521 55.1016 177 55.1084 176.497 55.0014V55.0014Z" stroke="#4285F4" stroke-width="0.463247" stroke-linecap="round" stroke-linejoin="round"/>
<path d="M136.431 46.3711L138.048 50.8878L145.325 48.2889L136.431 46.3711Z" stroke="#4285F4" stroke-width="0.463247" stroke-linecap="round" stroke-linejoin="round"/>
<path d="M145.024 48.3955L145.325 48.2889L136.431 46.3711L137.005 47.9693L145.024 48.3955Z" fill="#4285F4"/>
<path d="M156.638 42.9291H155.317L153.562 25.8446L157.99 24.8949L156.638 42.9291Z" fill="#4285F4"/>
<path d="M155.906 46.3711C156.479 46.3711 156.944 45.9065 156.944 45.3334C156.944 44.7604 156.479 44.2958 155.906 44.2958C155.333 44.2958 154.868 44.7604 154.868 45.3334C154.868 45.9065 155.333 46.3711 155.906 46.3711Z" fill="#4285F4"/>
<path d="M75.4629 121.44C74.4347 120.886 73.4688 120.222 72.5815 119.462C71.7142 118.677 70.9373 117.798 70.2653 116.84C68.9331 114.894 67.9894 112.71 67.4858 110.406C66.9868 108.113 66.7813 105.765 66.8743 103.42C66.9523 101.086 67.2816 98.7672 67.8564 96.5038C67.6619 97.6526 67.4997 98.82 67.3932 99.9596C67.2866 101.099 67.2218 102.276 67.2218 103.429C67.1838 105.739 67.4201 108.045 67.9259 110.299C68.4041 112.556 69.2928 114.706 70.5479 116.641C71.1812 117.603 71.9175 118.493 72.7437 119.296C73.5803 120.095 74.4908 120.813 75.4629 121.44ZM62.0751 110.48C62.1353 112.083 62.2372 113.681 62.4364 115.261C62.6378 116.84 62.9474 118.403 63.3629 119.939C63.7679 121.474 64.3153 122.968 64.9982 124.401C65.6886 125.836 66.5453 127.186 67.5507 128.422C67.2727 128.134 66.9994 127.842 66.7261 127.546C66.4528 127.25 66.2212 126.921 65.9664 126.619C65.7116 126.318 65.5031 125.952 65.29 125.614C65.0675 125.278 64.8634 124.93 64.6785 124.572C63.9188 123.144 63.3265 121.633 62.9136 120.069C62.5009 118.509 62.2296 116.916 62.1029 115.307C61.9634 113.701 61.9541 112.087 62.0751 110.48ZM126.578 113.676C126.995 114.68 127.306 115.725 127.504 116.794C127.677 117.866 127.747 118.952 127.713 120.037C127.59 122.219 127.121 124.367 126.323 126.402C125.523 128.424 124.505 130.353 123.289 132.155C122.078 133.959 120.681 135.63 119.119 137.14C119.833 136.331 120.508 135.491 121.144 134.62C121.792 133.763 122.399 132.873 122.969 131.961C124.126 130.154 125.099 128.236 125.874 126.235C126.26 125.238 126.582 124.216 126.837 123.178C127.066 122.135 127.22 121.078 127.3 120.014C127.463 117.874 127.218 115.724 126.578 113.676ZM132.683 134.421C133.007 133.329 133.274 132.222 133.485 131.104C133.691 129.992 133.81 128.866 133.841 127.736C133.871 126.608 133.798 125.479 133.624 124.363C133.536 123.803 133.419 123.248 133.272 122.7C133.197 122.427 133.128 122.154 133.045 121.88C132.961 121.607 132.864 121.338 132.781 121.065C132.915 121.32 133.04 121.579 133.16 121.839C133.281 122.098 133.378 122.372 133.489 122.64C133.677 123.185 133.831 123.74 133.953 124.303C134.205 125.434 134.317 126.592 134.286 127.75C134.255 128.907 134.1 130.058 133.823 131.182C133.553 132.298 133.172 133.383 132.683 134.421Z" fill="#3842AD"/>
</g>
<defs>
<clipPath id="clip0_1727_7100">
<rect width="232.194" height="196" fill="white"/>
</clipPath>
</defs>
</svg>
