<svg width="31" height="31" viewBox="0 0 31 31" fill="none" xmlns="http://www.w3.org/2000/svg">
<path d="M26.8828 4.35938H23.0078C22.7509 4.35938 22.5045 4.46144 22.3228 4.64312C22.1411 4.82479 22.0391 5.0712 22.0391 5.32812C22.0391 5.58505 22.1411 5.83146 22.3228 6.01313C22.5045 6.19481 22.7509 6.29688 23.0078 6.29688H24.5675L12.9425 18.1205L9.88124 15.0592C9.79127 14.9691 9.68443 14.8977 9.56682 14.8489C9.44922 14.8002 9.32316 14.7751 9.19585 14.7751C9.06854 14.7751 8.94248 14.8002 8.82488 14.8489C8.70727 14.8977 8.60043 14.9691 8.51046 15.0592L2.69796 20.8717C2.60795 20.9617 2.53656 21.0686 2.48785 21.1862C2.43913 21.3038 2.41406 21.4298 2.41406 21.5571C2.41406 21.6844 2.43913 21.8104 2.48785 21.928C2.53656 22.0456 2.60795 22.1525 2.69796 22.2425C2.87974 22.4243 3.12628 22.5264 3.38335 22.5264C3.51064 22.5264 3.63668 22.5013 3.75428 22.4526C3.87188 22.4039 3.97873 22.3325 4.06874 22.2425L9.20312 17.113L12.2741 20.1839C12.4549 20.3658 12.7005 20.4686 12.957 20.4697C13.0852 20.4692 13.212 20.4432 13.3301 20.3933C13.4481 20.3434 13.5551 20.2706 13.6448 20.1791L25.9141 7.69187V9.20312C25.9141 9.46005 26.0161 9.70646 26.1978 9.88813C26.3795 10.0698 26.6259 10.1719 26.8828 10.1719C27.1397 10.1719 27.3861 10.0698 27.5678 9.88813C27.7495 9.70646 27.8516 9.46005 27.8516 9.20312V5.32812C27.8516 5.0712 27.7495 4.82479 27.5678 4.64312C27.3861 4.46144 27.1397 4.35938 26.8828 4.35938Z" fill="#979797"/>
<path d="M9.7214 20.1353C9.65344 20.067 9.57268 20.0129 9.48374 19.9759C9.39479 19.939 9.29943 19.9199 9.20312 19.9199C9.10681 19.9199 9.01144 19.939 8.9225 19.9759C8.83356 20.0129 8.7528 20.067 8.68484 20.1353L6.26296 22.5571C6.19511 22.6253 6.14137 22.7061 6.1048 22.795C6.06823 22.884 6.04955 22.9793 6.04984 23.0754V27.6576C6.05112 27.9021 6.14916 28.1362 6.32252 28.3087C6.49588 28.4811 6.73046 28.5779 6.97499 28.5779H9.97812C10.2218 28.5766 10.4552 28.4793 10.6275 28.307C10.7998 28.1346 10.8972 27.9013 10.8984 27.6576V21.6174C10.8987 21.5213 10.88 21.426 10.8435 21.3371C10.8069 21.2481 10.7532 21.1673 10.6853 21.0992L9.7214 20.1353ZM17.2631 18.9921L13.6255 22.6928C13.4296 22.8916 13.3199 23.1596 13.3203 23.4387V27.6576C13.3216 27.9013 13.419 28.1346 13.5913 28.307C13.7636 28.4793 13.9969 28.5766 14.2406 28.5779H17.2437C17.4874 28.5766 17.7208 28.4793 17.8931 28.307C18.0654 28.1346 18.1628 27.9013 18.1641 27.6576V19.3748C18.1659 19.2696 18.1362 19.1664 18.0789 19.0782C18.0217 18.99 17.9394 18.9209 17.8426 18.8798C17.7458 18.8387 17.6389 18.8274 17.5357 18.8474C17.4324 18.8674 17.3375 18.9178 17.2631 18.9921ZM24.5917 11.5134L20.8959 15.2915C20.6984 15.4916 20.5871 15.7611 20.5859 16.0423V27.6673C20.5897 27.9093 20.6882 28.1402 20.8603 28.3104C21.0323 28.4806 21.2642 28.5767 21.5062 28.5779H24.5094C24.7531 28.5766 24.9864 28.4793 25.1587 28.307C25.331 28.1346 25.4284 27.9013 25.4297 27.6576V11.8573C25.4323 11.759 25.405 11.6623 25.3514 11.5799C25.2978 11.4976 25.2203 11.4335 25.1294 11.3961C25.0385 11.3588 24.9383 11.35 24.8423 11.371C24.7462 11.3919 24.6589 11.4416 24.5917 11.5134Z" fill="#01998D"/>
</svg>
