<svg width="32" height="32" viewBox="0 0 32 32" fill="none" xmlns="http://www.w3.org/2000/svg">
<path d="M25.3333 1.33325L18.6667 7.99992V22.6666L25.3333 16.6666V1.33325ZM1.33333 7.99992V27.5332C1.33333 27.8666 1.66666 28.1999 1.99999 28.1999C2.13333 28.1999 2.19999 28.1333 2.33333 28.1333C4.13333 27.2666 6.73333 26.6666 8.66666 26.6666C11.2667 26.6666 14.0667 27.1999 16 28.6666V7.99992C14.0667 6.53325 11.2667 5.99992 8.66666 5.99992C6.06666 5.99992 3.26666 6.53325 1.33333 7.99992ZM30.6667 25.9999V7.99992C29.8667 7.39992 29 6.99992 28 6.66658V24.6666C26.5333 24.1999 24.9333 23.9999 23.3333 23.9999C21.0667 23.9999 17.8 24.8666 16 25.9999V28.6666C17.8 27.5333 21.0667 26.6666 23.3333 26.6666C25.5333 26.6666 27.8 27.0666 29.6667 28.0666C29.8 28.1332 29.8667 28.1333 30 28.1333C30.3333 28.1333 30.6667 27.7999 30.6667 27.4666V25.9999Z" fill="#006BD7"/>
</svg>
