<svg width="32" height="32" viewBox="0 0 32 32" fill="none" xmlns="http://www.w3.org/2000/svg">
<path d="M26 4.66675L24 2.66675L22 4.66675L20 2.66675L18 4.66675L16 2.66675L14 4.66675L12 2.66675L10 4.66675L8 2.66675V21.3334H4V25.3334C4 27.5467 5.78667 29.3334 8 29.3334H24C26.2133 29.3334 28 27.5467 28 25.3334V2.66675L26 4.66675ZM25.3333 25.3334C25.3333 26.0667 24.7333 26.6667 24 26.6667C23.2667 26.6667 22.6667 26.0667 22.6667 25.3334V21.3334H10.6667V6.66675H25.3333V25.3334Z" fill="#006BD7"/>
<path d="M20 9.3335H12V12.0002H20V9.3335Z" fill="#006BD7"/>
<path d="M24 9.3335H21.3333V12.0002H24V9.3335Z" fill="#006BD7"/>
<path d="M20 13.3335H12V16.0002H20V13.3335Z" fill="#006BD7"/>
<path d="M24 13.3335H21.3333V16.0002H24V13.3335Z" fill="#006BD7"/>
</svg>
