<svg width="32" height="32" viewBox="0 0 32 32" fill="none" xmlns="http://www.w3.org/2000/svg">
<path d="M14.6667 22.6666H17.3333V21.3333H18.6667C19.4 21.3333 20 20.7333 20 19.9999V15.9999C20 15.2666 19.4 14.6666 18.6667 14.6666H14.6667V13.3333H20V10.6666H17.3333V9.33325H14.6667V10.6666H13.3333C12.6 10.6666 12 11.2666 12 11.9999V15.9999C12 16.7333 12.6 17.3333 13.3333 17.3333H17.3333V18.6666H12V21.3333H14.6667V22.6666ZM26.6667 5.33325H5.33334C3.85334 5.33325 2.68001 6.51992 2.68001 7.99992L2.66667 23.9999C2.66667 25.4799 3.85334 26.6666 5.33334 26.6666H26.6667C28.1467 26.6666 29.3333 25.4799 29.3333 23.9999V7.99992C29.3333 6.51992 28.1467 5.33325 26.6667 5.33325ZM26.6667 23.9999H5.33334V7.99992H26.6667V23.9999Z" fill="#006BD7"/>
</svg>
