<svg width="32" height="32" viewBox="0 0 32 32" fill="none" xmlns="http://www.w3.org/2000/svg">
<path d="M17.9867 7.30672C19.4533 7.30672 20.6533 6.10672 20.6533 4.64006C20.6533 3.17339 19.4533 1.97339 17.9867 1.97339C16.52 1.97339 15.32 3.17339 15.32 4.64006C15.32 6.10672 16.52 7.30672 17.9867 7.30672ZM13.1867 25.8401L14.52 19.9734L17.32 22.6401V30.6401H19.9867V20.6401L17.1867 17.9734L17.9867 13.9734C19.72 15.9734 22.3867 17.3067 25.32 17.3067V14.6401C22.7867 14.6401 20.6533 13.3067 19.5867 11.4401L18.2533 9.30672C17.72 8.50672 16.92 7.97339 15.9867 7.97339C15.5867 7.97339 15.32 8.10672 14.92 8.10672L7.98667 11.0401V17.3067H10.6533V12.7734L13.0533 11.8401L10.92 22.6401L4.38667 21.3067L3.85333 23.9734L13.1867 25.8401Z" fill="#006BD7"/>
</svg>
