<svg width="32" height="32" viewBox="0 0 32 32" fill="none" xmlns="http://www.w3.org/2000/svg">
<path d="M25.3333 3.99992H19.76C19.2 2.45325 17.7333 1.33325 16 1.33325C14.2667 1.33325 12.8 2.45325 12.24 3.99992H6.66667C5.2 3.99992 4 5.19992 4 6.66658V25.3333C4 26.7999 5.2 27.9999 6.66667 27.9999H25.3333C26.8 27.9999 28 26.7999 28 25.3333V6.66658C28 5.19992 26.8 3.99992 25.3333 3.99992ZM16 3.99992C16.7333 3.99992 17.3333 4.59992 17.3333 5.33325C17.3333 6.06659 16.7333 6.66658 16 6.66658C15.2667 6.66658 14.6667 6.06659 14.6667 5.33325C14.6667 4.59992 15.2667 3.99992 16 3.99992ZM18.6667 22.6666H9.33333V19.9999H18.6667V22.6666ZM22.6667 17.3333H9.33333V14.6666H22.6667V17.3333ZM22.6667 11.9999H9.33333V9.33325H22.6667V11.9999Z" fill="#006BD7"/>
</svg>
