<svg width="32" height="32" viewBox="0 0 32 32" fill="none" xmlns="http://www.w3.org/2000/svg">
<path d="M5.33334 8.00008H2.66667V26.6667C2.66667 28.1334 3.86667 29.3334 5.33334 29.3334H24V26.6667H5.33334V8.00008ZM26.6667 2.66675H10.6667C9.20001 2.66675 8.00001 3.86675 8.00001 5.33341V21.3334C8.00001 22.8001 9.20001 24.0001 10.6667 24.0001H26.6667C28.1333 24.0001 29.3333 22.8001 29.3333 21.3334V5.33341C29.3333 3.86675 28.1333 2.66675 26.6667 2.66675ZM25.3333 14.6667H12V12.0001H25.3333V14.6667ZM20 20.0001H12V17.3334H20V20.0001ZM25.3333 9.33341H12V6.66675H25.3333V9.33341Z" fill="#006BD7"/>
</svg>
