<svg width="32" height="32" viewBox="0 0 32 32" fill="none" xmlns="http://www.w3.org/2000/svg">
<path d="M16 2.66675C8.64001 2.66675 2.66667 8.64008 2.66667 16.0001C2.66667 23.3601 8.64001 29.3334 16 29.3334C23.36 29.3334 29.3333 23.3601 29.3333 16.0001C29.3333 8.64008 23.36 2.66675 16 2.66675ZM17.88 24.1201V26.6667H14.32V24.0934C12.04 23.6134 10.1067 22.1467 9.96001 19.5601H12.5733C12.7067 20.9601 13.6667 22.0534 16.1067 22.0534C18.72 22.0534 19.3067 20.7467 19.3067 19.9334C19.3067 18.8267 18.72 17.7867 15.7467 17.0801C12.44 16.2801 10.1733 14.9201 10.1733 12.1867C10.1733 9.89342 12.0267 8.40008 14.32 7.90675V5.33341H17.88V7.93341C20.36 8.53341 21.6 10.4134 21.68 12.4534H19.0667C19 10.9734 18.2133 9.96008 16.1067 9.96008C14.1067 9.96008 12.9067 10.8667 12.9067 12.1467C12.9067 13.2667 13.7733 14.0001 16.4667 14.6934C19.16 15.3867 22.04 16.5467 22.04 19.9067C22.0267 22.3467 20.2 23.6801 17.88 24.1201Z" fill="#006BD7"/>
</svg>
