<svg width="32" height="32" viewBox="0 0 32 32" fill="none" xmlns="http://www.w3.org/2000/svg">
<path d="M24 22.6667H8V20.0001H24V22.6667ZM24 17.3334H8V14.6667H24V17.3334ZM24 12.0001H8V9.33341H24V12.0001ZM4 29.3334L6 27.3334L8 29.3334L10 27.3334L12 29.3334L14 27.3334L16 29.3334L18 27.3334L20 29.3334L22 27.3334L24 29.3334L26 27.3334L28 29.3334V2.66675L26 4.66675L24 2.66675L22 4.66675L20 2.66675L18 4.66675L16 2.66675L14 4.66675L12 2.66675L10 4.66675L8 2.66675L6 4.66675L4 2.66675V29.3334Z" fill="#006BD7"/>
</svg>
