<svg width="12" height="14" viewBox="0 0 12 14" fill="none" xmlns="http://www.w3.org/2000/svg">
<path d="M2.58872 0.75C3.13125 0.750015 3.55623 0.980253 3.86366 1.44072C4.18917 1.88279 4.37001 2.49062 4.40619 3.26421V6.16521H5.16572L6.44066 7.49139H4.40619V11.2489C4.40618 11.5436 4.51469 11.8107 4.7317 12.0501C4.94871 12.2896 5.30135 12.4093 5.78963 12.4093C6.42257 12.4093 7.09168 12.0501 7.79697 11.3318C8.52033 10.595 8.9001 9.83983 8.93628 9.06622L8.61076 9.09385C7.45337 9.09385 6.87467 8.46761 6.87468 7.2151C6.87467 6.79147 7.0103 6.41388 7.28157 6.08233C7.55283 5.75079 8.00493 5.58502 8.63789 5.58501C9.30699 5.58502 9.8676 5.87973 10.3197 6.46913C10.7899 7.05855 11.025 7.77689 11.025 8.62416C11.025 9.87667 10.5006 11.0739 9.45168 12.2159C8.42087 13.3579 7.19115 13.9289 5.7625 13.9289C5.23805 13.9289 4.67744 13.6986 4.08067 13.2381C3.50197 12.7592 3.15837 12.2988 3.04987 11.8567V7.49139H1.74781L0.5 6.16521H3.04987V3.54049C3.04987 3.00635 2.7334 2.69323 2.10045 2.60112C1.8111 2.60113 1.62122 2.64718 1.5308 2.73926C1.36804 2.46299 1.21433 2.13145 1.06965 1.74463V1.60649C1.06965 1.36705 1.25049 1.16445 1.61218 0.998659C1.97386 0.832902 2.29938 0.750015 2.58872 0.75Z" fill="black" fill-opacity="0.4"/>
</svg>
